# xmcd
#
# Track frame offsets:
#	150
#	20982
#	38651
#	61558
#	80286
#	100087
#	123635
#	142467
#	159001
#	180745
#	199020
#	217323
#
# Disc length: 3142 seconds
#
# Revision: 0
# Processed by: cddbd v1.4PL0 Copyright (c) Steve Scherf et al.
# Submitted via: dBpowerAMP V4.0
#
DISCID=a80c440c
DTITLE=Various Artist - Wake Up Call
DYEAR=1900
DGENRE=
TTITLE0=Mail Order Mystics - John Mayall
TTITLE1=Maydell - 
TTITLE2=I Could Cry - 
TTITLE3=Wake Up Call - 
TTITLE4=Loaded Dice - 
TTITLE5=Undercover Agent Of The Blues - 
TTITLE6=Light The Fuse - 
TTITLE7=Anything I Can Say - 
TTITLE8=Nature's Dissapearing - 
TTITLE9=I'm a Sucker For Love - 
TTITLE10=Not At Home  - 
TTITLE11=Ain't That Lovin' You Baby - 
EXTD=\n silverstone records 1993
EXTT0=
EXTT1=
EXTT2=
EXTT3=
EXTT4=
EXTT5=
EXTT6=
EXTT7=
EXTT8=
EXTT9=
EXTT10=
EXTT11=
PLAYORDER=
